{"glyphs":{":":{"x_min":0,"x_max":307,"ha":307,"o":"m 79 374 l 79 522 l 227 522 l 227 374 z m 79 0 l 79 147 l 227 147 l 227 0 z"},"$":{"x_min":0,"x_max":567,"ha":567,"o":"m 313 91 q 353 96 374 120 q 395 143 395 182 q 395 217 375 240 q 355 262 313 275 z m 255 425 l 255 591 q 217 586 197 565 q 177 543 177 508 q 177 478 196 458 q 214 438 255 425 z m 255 -110 l 255 -16 q 145 -9 90 48 q 35 105 35 213 l 166 213 q 168 160 191 130 q 213 99 255 91 l 255 293 q 142 322 94 368 q 46 415 46 495 q 46 584 103 639 q 160 694 255 696 l 255 759 l 313 759 l 313 696 q 408 691 461 639 q 515 586 520 491 l 387 491 q 384 537 365 561 q 347 585 313 588 l 313 410 q 434 373 483 324 q 532 276 532 197 q 532 104 475 48 q 417 -8 313 -17 l 313 -110 z"},"?":{"x_min":0,"x_max":558,"ha":558,"o":"m 214 209 q 214 214 213 223 q 213 232 213 237 q 213 280 222 308 q 231 337 252 362 q 268 380 299 404 q 330 428 339 439 q 358 461 366 479 q 373 496 373 517 q 373 563 347 589 q 321 615 275 615 q 229 615 202 584 q 175 553 173 497 l 35 497 l 35 512 q 35 615 100 677 q 166 738 276 738 q 389 738 455 680 q 522 622 522 525 q 522 491 514 464 q 507 437 491 414 q 471 386 429 353 q 388 320 379 312 q 360 294 352 274 q 344 254 344 226 q 344 224 345 218 q 345 212 345 209 z m 207 0 l 207 143 l 351 143 l 351 0 z"},"<":{"x_min":0,"x_max":833,"ha":833,"o":"m 704 583 l 704 476 l 268 298 l 704 120 l 704 13 l 129 250 l 129 347 z"},"'":{"x_min":0,"x_max":172,"ha":172,"o":"m 39 702 l 133 702 l 133 429 l 39 429 z"},"=":{"x_min":0,"x_max":833,"ha":833,"o":"m 124 242 l 709 242 l 709 145 l 124 145 z m 124 452 l 709 452 l 709 355 l 124 355 z"},"a":{"x_min":0,"x_max":562,"ha":562,"o":"m 366 66 q 339 24 296 3 q 252 -19 195 -19 q 118 -19 76 25 q 34 69 34 150 q 34 225 76 265 q 118 304 214 319 q 236 322 271 327 q 362 338 362 379 q 362 411 342 425 q 322 439 275 439 q 232 439 209 422 q 186 405 186 373 l 186 365 l 53 365 l 53 375 q 53 457 111 503 q 168 550 270 550 q 381 550 441 511 q 500 473 500 400 l 500 98 q 500 65 507 49 q 514 32 530 24 l 530 0 l 382 0 q 375 14 371 30 q 367 47 366 66 z m 364 261 q 329 245 284 235 q 239 226 237 225 q 200 214 185 198 q 170 182 170 154 q 170 125 189 107 q 208 90 240 90 q 298 90 331 122 q 364 155 364 211 z"},"L":{"x_min":0,"x_max":580,"ha":580,"o":"m 74 0 l 74 719 l 222 719 l 222 133 l 573 133 l 573 0 z"},"3":{"x_min":0,"x_max":567,"ha":567,"o":"m 28 213 l 162 213 q 163 154 190 125 q 218 95 273 95 q 326 95 354 123 q 383 150 383 202 q 383 254 349 281 q 316 307 250 307 q 247 307 240 307 q 232 306 229 306 l 229 403 l 244 403 q 305 403 334 427 q 363 450 363 499 q 363 540 338 563 q 313 587 271 587 q 225 587 199 560 q 174 532 174 482 l 174 476 l 42 476 q 44 583 105 641 q 166 698 277 698 q 382 698 443 647 q 505 596 505 509 q 505 463 484 428 q 463 394 421 371 q 475 348 502 306 q 530 265 530 208 q 530 103 461 42 q 392 -20 273 -20 q 155 -20 92 40 q 28 100 28 210 z"},";":{"x_min":0,"x_max":307,"ha":307,"o":"m 80 374 l 80 522 l 227 522 l 227 374 z m 80 -169 l 80 -112 q 121 -100 141 -76 q 160 -51 160 -12 l 160 0 l 79 0 l 79 147 l 227 147 l 227 6 q 227 -67 190 -112 q 153 -156 80 -169 z"},"J":{"x_min":0,"x_max":553,"ha":553,"o":"m 24 268 l 167 268 l 167 181 q 167 144 189 124 q 212 104 254 104 q 300 104 318 128 q 336 152 336 218 l 336 719 l 484 719 l 484 211 q 484 143 476 111 q 468 79 449 54 q 421 18 372 -1 q 322 -20 256 -20 q 195 -20 148 -3 q 101 13 70 46 q 45 72 34 105 q 24 137 24 212 z"},"V":{"x_min":0,"x_max":625,"ha":625,"o":"m 243 0 l -5 719 l 159 719 l 312 181 l 468 719 l 630 719 l 385 0 z"},"\"":{"x_min":0,"x_max":331,"ha":331,"o":"m 198 702 l 292 702 l 292 429 l 198 429 z m 39 702 l 133 702 l 133 429 l 39 429 z"},"7":{"x_min":0,"x_max":567,"ha":567,"o":"m 278 0 l 132 0 q 140 143 201 284 q 262 424 376 560 l 32 560 l 32 679 l 528 679 l 528 574 q 413 447 351 306 q 289 164 278 0 z"},"S":{"x_min":0,"x_max":667,"ha":667,"o":"m 41 222 l 187 222 q 195 163 235 135 q 275 106 351 106 q 416 106 448 129 q 481 152 481 197 q 481 262 293 305 l 289 306 q 284 307 273 310 q 173 332 130 359 q 92 383 72 425 q 52 466 52 522 q 52 627 123 683 q 194 739 329 739 q 455 739 526 679 q 597 620 601 511 l 459 511 q 455 563 419 591 q 383 618 316 618 q 258 618 226 595 q 195 573 195 531 q 195 474 317 445 q 351 438 369 433 q 448 413 481 402 q 514 391 538 377 q 582 353 604 312 q 626 272 626 216 q 626 104 550 42 q 475 -20 337 -20 q 201 -20 124 43 q 47 106 41 222 z"},"}":{"x_min":0,"x_max":500,"ha":500,"o":"m 70 721 l 103 721 q 157 721 189 715 q 222 709 244 697 q 272 681 283 652 q 295 623 295 555 l 295 432 q 295 365 320 337 q 345 309 404 309 q 407 309 414 310 q 420 310 424 310 l 424 208 l 406 208 q 345 208 320 181 q 295 153 295 86 l 295 -37 q 295 -107 283 -135 q 272 -164 244 -179 q 221 -191 188 -197 q 156 -203 107 -203 q 101 -203 89 -203 q 77 -202 70 -202 l 70 -100 q 74 -100 82 -101 q 90 -101 93 -101 q 142 -101 159 -82 q 177 -63 177 -4 l 177 113 q 177 186 199 216 q 221 246 278 259 q 221 272 199 302 q 177 333 177 405 l 177 523 q 177 583 159 601 q 142 620 93 620 q 90 620 82 620 q 74 619 70 619 z"},"Z":{"x_min":0,"x_max":601,"ha":601,"o":"m 18 0 l 18 125 l 409 589 l 26 589 l 26 719 l 589 719 l 589 594 l 197 130 l 580 130 l 580 0 z"},"x":{"x_min":0,"x_max":516,"ha":516,"o":"m -4 0 l 175 271 l 4 531 l 166 531 l 260 371 l 353 531 l 510 531 l 343 273 l 520 0 l 354 0 l 256 168 l 159 0 z"},")":{"x_min":0,"x_max":370,"ha":370,"o":"m 11 719 l 115 719 q 200 603 244 485 q 288 367 288 255 q 288 143 244 25 q 200 -93 115 -209 l 11 -209 q 79 -98 112 16 q 145 131 145 255 q 145 379 112 494 q 79 608 11 719 z"},"&":{"x_min":0,"x_max":701,"ha":701,"o":"m 270 314 l 233 287 q 210 271 199 250 q 188 228 188 200 q 188 159 216 130 q 245 102 287 102 q 318 102 347 115 q 375 128 400 153 z m 309 468 l 326 480 q 350 496 361 516 q 372 536 372 562 q 372 587 357 602 q 341 616 315 616 q 288 616 272 601 q 257 586 257 561 q 257 547 264 531 q 272 515 286 497 z m 199 403 l 171 440 q 149 469 139 495 q 130 521 130 549 q 130 627 180 673 q 230 719 316 719 q 398 719 446 677 q 494 634 494 562 q 494 507 466 464 q 438 421 378 383 l 481 256 q 496 280 504 310 q 513 339 516 376 l 643 376 q 638 312 617 258 q 596 204 559 159 l 690 0 l 524 0 l 475 60 q 432 21 381 0 q 329 -20 273 -20 q 173 -20 110 39 q 47 98 47 190 q 47 258 82 308 q 117 357 199 403 z"},"_":{"x_min":0,"x_max":500,"ha":500,"o":"m 0 -136 l 500 -136 l 500 -236 l 0 -236 z"},"v":{"x_min":0,"x_max":530,"ha":530,"o":"m 193 0 l 2 531 l 159 531 l 268 150 l 378 531 l 528 531 l 338 0 z"},"O":{"x_min":0,"x_max":789,"ha":789,"o":"m 194 359 q 194 240 247 175 q 299 109 394 109 q 490 109 543 175 q 596 240 596 359 q 596 478 543 543 q 490 609 394 609 q 299 609 247 543 q 194 478 194 359 z m 43 359 q 43 533 138 635 q 233 738 394 738 q 555 738 651 635 q 746 533 746 359 q 746 185 651 83 q 555 -20 394 -20 q 233 -20 138 83 q 43 185 43 359 z"},"(":{"x_min":0,"x_max":370,"ha":370,"o":"m 361 719 q 293 609 261 495 q 228 380 228 255 q 228 130 261 16 q 293 -99 361 -209 l 258 -209 q 172 -92 128 26 q 84 144 84 255 q 84 366 128 484 q 172 603 258 719 z"},"C":{"x_min":0,"x_max":744,"ha":744,"o":"m 700 247 q 692 125 606 52 q 520 -20 381 -20 q 221 -20 133 80 q 44 179 44 359 q 44 542 134 640 q 225 738 394 738 q 532 738 612 671 q 691 604 699 481 l 553 481 q 544 542 503 574 q 463 606 394 606 q 296 606 246 543 q 195 480 195 359 q 195 242 245 178 q 296 114 389 114 q 457 114 500 148 q 542 183 555 247 z"},"W":{"x_min":0,"x_max":934,"ha":934,"o":"m 214 0 l 8 719 l 161 719 l 284 212 l 388 719 l 546 719 l 650 212 l 773 719 l 925 719 l 719 0 l 578 0 l 467 551 l 355 0 z"},"A":{"x_min":0,"x_max":686,"ha":686,"o":"m 342 575 l 242 269 l 442 269 z m 256 719 l 427 719 l 686 0 l 531 0 l 482 148 l 203 148 l 156 0 l 0 0 z"},"f":{"x_min":0,"x_max":324,"ha":324,"o":"m 87 0 l 87 431 l 11 431 l 11 531 l 87 531 l 87 580 q 87 654 125 689 q 164 724 246 724 q 261 724 278 723 q 295 723 314 721 l 314 608 l 277 608 q 245 608 235 600 q 225 591 225 568 l 225 531 l 314 531 l 314 431 l 226 431 l 226 0 z"},"Q":{"x_min":0,"x_max":789,"ha":789,"o":"m 481 128 l 405 202 l 486 286 l 564 210 q 580 239 588 277 q 596 314 596 359 q 596 478 543 543 q 490 609 394 609 q 299 609 247 543 q 194 478 194 359 q 194 240 247 175 q 299 109 394 109 q 418 109 440 114 q 462 119 481 128 z m 585 30 q 548 5 500 -7 q 451 -20 394 -20 q 233 -20 138 83 q 43 185 43 359 q 43 533 138 635 q 233 738 394 738 q 555 738 651 635 q 746 533 746 359 q 746 283 727 219 q 707 156 669 109 l 747 34 l 667 -50 z"},"w":{"x_min":0,"x_max":765,"ha":765,"o":"m 157 0 l 7 531 l 151 531 l 238 163 l 311 531 l 456 531 l 533 163 l 620 531 l 758 531 l 609 0 l 467 0 l 382 380 l 300 0 z"},"-":{"x_min":0,"x_max":334,"ha":334,"o":"m 30 199 l 30 333 l 304 333 l 304 199 z"},"E":{"x_min":0,"x_max":653,"ha":653,"o":"m 74 0 l 74 719 l 596 719 l 596 594 l 220 594 l 220 441 l 564 441 l 564 318 l 220 318 l 220 133 l 614 133 l 614 0 z"},"s":{"x_min":0,"x_max":546,"ha":546,"o":"m 32 173 l 174 173 q 176 132 203 113 q 230 93 285 93 q 327 93 349 107 q 372 121 372 146 q 372 182 287 200 q 252 208 232 213 q 128 239 88 275 q 48 312 48 373 q 48 455 107 502 q 166 550 266 550 q 373 550 433 502 q 494 455 498 369 l 360 369 q 358 403 334 421 q 310 440 267 440 q 227 440 207 428 q 187 416 187 391 q 187 359 293 335 q 317 330 332 326 q 438 301 476 266 q 515 231 515 167 q 515 77 451 29 q 388 -18 266 -18 q 156 -18 94 31 q 32 81 32 167 z"},">":{"x_min":0,"x_max":833,"ha":833,"o":"m 129 583 l 704 347 l 704 250 l 129 13 l 129 120 l 566 298 l 129 476 z"},"l":{"x_min":0,"x_max":275,"ha":275,"o":"m 67 0 l 67 719 l 209 719 l 209 0 z"},"8":{"x_min":0,"x_max":567,"ha":567,"o":"m 174 203 q 174 152 202 124 q 231 96 284 96 q 335 96 364 125 q 393 153 393 203 q 393 251 363 281 q 333 310 284 310 q 235 310 204 280 q 174 250 174 203 z m 185 503 q 185 462 210 441 q 236 419 283 419 q 331 419 356 441 q 382 463 382 503 q 382 542 355 564 q 329 587 283 587 q 238 587 212 564 q 185 541 185 503 z m 135 367 q 91 392 71 424 q 52 457 52 508 q 52 598 113 649 q 175 700 283 700 q 393 700 454 649 q 516 598 516 508 q 516 459 495 424 q 474 389 432 367 q 483 343 509 301 q 535 259 535 198 q 535 96 468 38 q 401 -20 283 -20 q 164 -20 98 38 q 32 95 32 198 q 32 258 57 299 q 82 340 135 367 z"},"\\":{"x_min":0,"x_max":317,"ha":317,"o":"m 246 -93 l 4 738 l 70 738 l 313 -93 z"},"e":{"x_min":0,"x_max":570,"ha":570,"o":"m 389 161 l 531 161 q 509 77 444 30 q 379 -18 285 -18 q 170 -18 103 59 q 35 137 35 269 q 35 399 102 475 q 168 550 283 550 q 405 550 472 476 q 538 402 538 265 q 538 250 538 242 q 538 235 537 228 l 182 228 q 185 166 213 134 q 240 102 292 102 q 329 102 352 116 q 375 131 389 161 z m 182 321 l 391 321 q 389 375 363 403 q 336 431 286 431 q 240 431 213 403 q 187 375 182 321 z"},"b":{"x_min":0,"x_max":613,"ha":613,"o":"m 65 719 l 203 719 l 203 465 q 229 506 269 528 q 309 549 360 549 q 456 549 517 469 q 578 390 578 263 q 578 137 517 60 q 456 -18 358 -18 q 307 -18 269 3 q 231 25 200 72 l 200 0 l 65 0 z m 437 269 q 437 342 406 384 q 375 426 322 426 q 265 426 234 385 q 203 344 203 269 q 203 188 233 146 q 262 104 319 104 q 376 104 407 146 q 437 188 437 269 z"},"%":{"x_min":0,"x_max":860,"ha":860,"o":"m 571 162 q 571 129 593 107 q 615 85 647 85 q 678 85 701 108 q 723 130 723 162 q 723 193 701 216 q 679 238 647 238 q 615 238 593 216 q 571 194 571 162 z m 465 162 q 465 238 518 291 q 570 343 647 343 q 722 343 775 290 q 828 237 828 162 q 828 87 775 33 q 722 -20 647 -20 q 570 -20 518 33 q 465 85 465 162 z m 181 -20 l 598 699 l 677 699 l 260 -20 z m 138 517 q 138 485 160 463 q 182 441 214 441 q 246 441 268 463 q 290 485 290 517 q 290 548 268 571 q 246 593 214 593 q 182 593 160 571 q 138 549 138 517 z m 32 517 q 32 593 85 646 q 138 699 214 699 q 289 699 342 646 q 395 592 395 517 q 395 442 342 389 q 289 336 214 336 q 137 336 85 388 q 32 440 32 517 z"},"m":{"x_min":0,"x_max":877,"ha":877,"o":"m 62 0 l 62 531 l 197 531 l 197 472 q 227 509 263 527 q 300 546 344 546 q 395 546 430 527 q 466 508 492 468 q 520 507 558 526 q 596 546 643 546 q 723 546 770 499 q 817 452 817 371 l 817 0 l 677 0 l 677 342 q 677 380 656 402 q 635 423 598 423 q 557 423 532 396 q 508 369 508 322 l 508 0 l 369 0 l 369 341 q 369 380 349 401 q 329 423 292 423 q 250 423 226 396 q 202 368 202 321 l 202 0 z"},"#":{"x_min":0,"x_max":769,"ha":769,"o":"m 346 414 l 303 295 l 426 295 l 468 414 z m 346 715 l 454 715 l 383 512 l 501 512 l 573 715 l 681 715 l 609 512 l 747 512 l 711 414 l 574 414 l 533 296 l 675 296 l 640 198 l 498 198 l 426 -5 l 318 -5 l 390 198 l 271 198 l 198 -5 l 91 -5 l 162 198 l 22 198 l 59 296 l 197 296 l 239 414 l 93 414 l 129 512 l 274 512 z"},",":{"x_min":0,"x_max":284,"ha":284,"o":"m 68 -169 l 68 -112 q 109 -100 128 -76 q 148 -51 148 -12 l 148 0 l 68 0 l 68 147 l 216 147 l 216 6 q 216 -67 178 -111 q 141 -156 68 -169 z"},"n":{"x_min":0,"x_max":597,"ha":597,"o":"m 62 0 l 62 531 l 201 531 l 201 468 q 231 506 271 526 q 312 545 362 545 q 450 545 493 499 q 537 454 537 362 l 537 0 l 395 0 l 395 321 q 395 378 376 402 q 356 427 313 427 q 263 427 233 397 q 204 367 204 315 l 204 0 z"},"h":{"x_min":0,"x_max":602,"ha":602,"o":"m 65 0 l 65 719 l 206 719 l 206 472 q 235 508 275 527 q 314 545 364 545 q 411 545 448 529 q 486 513 510 483 q 526 463 532 437 q 539 411 539 354 l 539 344 l 539 0 l 398 0 l 398 278 q 398 376 380 402 q 362 427 315 427 q 265 427 235 397 q 206 367 206 315 l 206 0 z"},"z":{"x_min":0,"x_max":506,"ha":506,"o":"m 17 0 l 17 109 l 308 418 l 34 418 l 34 531 l 478 531 l 478 415 l 191 118 l 488 118 l 488 0 z"},"B":{"x_min":0,"x_max":704,"ha":704,"o":"m 216 130 l 391 130 q 453 130 481 152 q 510 175 510 223 q 510 273 482 296 q 454 318 390 318 l 216 318 z m 216 441 l 385 441 q 439 441 465 460 q 490 479 490 519 q 490 559 466 576 q 441 594 384 594 l 216 594 z m 74 0 l 74 719 l 413 719 q 523 719 581 673 q 639 626 639 537 q 639 482 618 446 q 596 409 553 389 q 609 367 636 324 q 664 282 664 219 q 664 114 596 57 q 527 0 402 0 z"},"K":{"x_min":0,"x_max":703,"ha":703,"o":"m 74 0 l 74 719 l 222 719 l 222 424 l 503 719 l 688 719 l 401 428 l 714 0 l 533 0 l 299 329 l 222 253 l 222 0 z"},"R":{"x_min":0,"x_max":714,"ha":714,"o":"m 222 405 l 396 405 q 453 405 479 428 q 506 451 506 500 q 506 547 480 571 q 454 595 403 595 l 222 595 z m 74 0 l 74 719 l 423 719 q 541 719 597 669 q 654 619 654 515 q 654 449 626 405 q 599 361 547 345 q 594 329 614 294 q 633 260 636 188 l 639 103 q 639 102 639 100 q 641 36 667 22 l 667 0 l 505 0 q 497 15 493 37 q 489 60 488 90 l 486 166 q 483 233 461 256 q 438 280 379 280 l 222 280 l 222 0 z"},"T":{"x_min":0,"x_max":594,"ha":594,"o":"m 223 0 l 223 591 l 10 591 l 10 719 l 583 719 l 583 591 l 371 591 l 371 0 z"},"P":{"x_min":0,"x_max":667,"ha":667,"o":"m 223 386 l 366 386 q 424 386 451 411 q 477 436 477 490 q 477 542 451 568 q 425 594 374 594 l 223 594 z m 222 256 l 222 0 l 74 0 l 74 719 l 394 719 q 507 719 566 660 q 624 602 624 488 q 624 376 567 316 q 510 256 404 256 z"},"|":{"x_min":0,"x_max":500,"ha":500,"o":"m 200 764 l 301 764 l 301 -236 l 200 -236 z"},"t":{"x_min":0,"x_max":318,"ha":318,"o":"m 298 -4 q 278 -4 251 -6 q 224 -7 217 -7 q 135 -7 105 24 q 75 54 75 144 l 75 431 l 5 431 l 5 531 l 75 531 l 75 676 l 216 676 l 216 531 l 298 531 l 298 431 l 216 431 l 216 137 q 216 116 225 110 q 234 103 263 103 l 298 103 z"},"M":{"x_min":0,"x_max":872,"ha":872,"o":"m 74 0 l 74 719 l 293 719 l 436 172 l 577 719 l 797 719 l 797 0 l 658 0 l 658 580 l 512 0 l 361 0 l 213 580 l 213 0 z"},"g":{"x_min":0,"x_max":610,"ha":610,"o":"m 178 274 q 178 199 208 159 q 238 119 294 119 q 350 119 380 159 q 409 199 409 276 q 409 349 379 388 q 348 428 292 428 q 238 428 208 388 q 178 347 178 274 z m 50 -51 l 205 -51 q 212 -78 233 -91 q 254 -104 290 -104 q 356 -104 383 -76 q 409 -48 409 28 l 409 75 q 387 37 351 18 q 315 0 261 0 q 158 0 96 73 q 34 147 34 269 q 34 398 95 474 q 156 550 259 550 q 312 550 350 529 q 388 509 412 467 l 412 531 l 547 531 l 547 35 q 547 -48 531 -92 q 516 -136 478 -166 q 446 -191 396 -204 q 347 -217 283 -217 q 177 -217 116 -173 q 55 -130 50 -51 z"},"j":{"x_min":0,"x_max":271,"ha":271,"o":"m 65 590 l 65 718 l 207 718 l 207 590 z m 3 -217 l 3 -98 l 31 -98 q 49 -98 57 -90 q 65 -81 65 -62 l 65 531 l 207 531 l 207 -85 q 207 -156 167 -187 q 127 -217 30 -217 z"},"i":{"x_min":0,"x_max":272,"ha":272,"o":"m 65 590 l 65 719 l 207 719 l 207 590 z m 65 0 l 65 531 l 207 531 l 207 0 z"},"y":{"x_min":0,"x_max":537,"ha":537,"o":"m 83 -213 l 83 -98 q 90 -99 97 -100 q 104 -100 116 -100 q 158 -100 179 -80 q 200 -61 200 -21 q 200 -18 199 -14 q 198 -9 197 -6 l 6 531 l 162 531 l 274 148 l 383 531 l 532 531 l 314 -95 q 290 -166 253 -191 q 216 -217 143 -217 q 130 -217 115 -216 q 100 -215 83 -213 z"},"@":{"x_min":0,"x_max":1000,"ha":1000,"o":"m 570 133 q 543 92 508 73 q 473 53 425 53 q 348 53 307 95 q 267 137 267 219 q 267 336 335 415 q 403 494 503 494 q 542 494 571 478 q 600 462 618 430 l 644 478 l 731 478 l 659 186 q 658 181 657 175 q 656 169 656 166 q 656 149 667 140 q 679 132 702 132 q 721 132 742 142 q 763 151 781 169 q 823 208 844 260 q 866 312 866 375 q 866 492 776 568 q 685 643 542 643 q 473 643 414 626 q 354 610 306 577 q 223 521 178 438 q 134 354 134 255 q 134 105 235 15 q 336 -74 505 -74 q 584 -74 659 -50 q 735 -26 800 19 l 840 -38 q 765 -94 681 -123 q 598 -151 507 -151 q 413 -151 334 -127 q 256 -104 195 -57 q 119 2 82 79 q 44 156 44 254 q 44 335 70 409 q 95 483 145 544 q 217 632 319 678 q 420 723 545 723 q 627 723 700 701 q 772 679 826 638 q 892 587 925 521 q 957 456 957 373 q 957 292 925 224 q 893 156 833 108 q 799 81 759 66 q 718 52 675 52 q 623 52 597 72 q 571 93 570 133 z m 594 342 q 588 381 566 402 q 544 423 509 423 q 453 423 412 362 q 371 302 371 217 q 371 172 391 148 q 411 125 448 125 q 489 125 522 156 q 556 187 568 236 z"},".":{"x_min":0,"x_max":284,"ha":284,"o":"m 68 0 l 68 147 l 215 147 l 215 0 z"},"p":{"x_min":0,"x_max":613,"ha":613,"o":"m 437 262 q 437 342 407 385 q 376 427 319 427 q 262 427 233 385 q 203 343 203 262 q 203 187 234 146 q 265 105 322 105 q 375 105 406 147 q 437 189 437 262 z m 65 -213 l 65 531 l 200 531 l 200 459 q 231 506 269 527 q 307 549 358 549 q 456 549 517 471 q 578 394 578 268 q 578 141 517 61 q 456 -18 360 -18 q 309 -18 269 3 q 229 25 203 66 l 203 -213 z"},"X":{"x_min":0,"x_max":626,"ha":626,"o":"m -5 0 l 221 367 l -5 719 l 166 719 l 313 468 l 459 719 l 631 719 l 405 368 l 631 0 l 460 0 l 313 249 l 166 0 z"},"*":{"x_min":0,"x_max":500,"ha":500,"o":"m 250 434 l 164 313 l 81 371 l 175 489 l 38 527 l 70 626 l 201 579 l 201 719 l 298 719 l 298 579 l 429 625 l 462 526 l 325 489 l 418 372 l 333 311 z"},"Y":{"x_min":0,"x_max":622,"ha":622,"o":"m 396 0 l 248 0 l 248 268 l -13 719 l 168 719 l 322 409 l 464 719 l 633 719 l 396 268 z"},"c":{"x_min":0,"x_max":551,"ha":551,"o":"m 383 200 l 523 200 q 514 99 449 41 q 384 -18 282 -18 q 167 -18 101 57 q 35 133 35 266 q 35 399 102 474 q 169 550 287 550 q 390 550 452 495 q 515 440 522 343 l 381 343 q 375 385 351 408 q 327 430 288 430 q 235 430 209 389 q 183 347 183 264 q 183 188 210 146 q 237 105 288 105 q 328 105 352 129 q 375 153 383 200 z"},"!":{"x_min":0,"x_max":330,"ha":330,"o":"m 128 200 l 90 524 l 90 719 l 240 719 l 240 524 l 202 200 z m 92 0 l 92 144 l 237 144 l 237 0 z"},"/":{"x_min":0,"x_max":317,"ha":317,"o":"m 4 -93 l 246 738 l 313 738 l 70 -93 z"},"[":{"x_min":0,"x_max":382,"ha":382,"o":"m 116 719 l 363 719 l 363 615 l 248 615 l 248 -109 l 363 -109 l 363 -213 l 116 -213 z"},"6":{"x_min":0,"x_max":567,"ha":567,"o":"m 180 222 q 180 162 210 127 q 240 92 292 92 q 340 92 368 126 q 395 160 395 221 q 395 277 367 309 q 338 340 287 340 q 237 340 208 309 q 180 277 180 222 z m 178 405 q 202 429 236 442 q 270 454 311 454 q 414 454 475 392 q 537 329 537 225 q 537 115 470 47 q 402 -21 292 -21 q 165 -21 98 67 q 32 155 32 324 q 32 506 103 603 q 174 699 307 699 q 400 699 457 651 q 514 603 519 520 l 377 520 q 373 554 351 571 q 330 588 291 588 q 238 588 210 542 q 182 497 178 405 z"},"r":{"x_min":0,"x_max":384,"ha":384,"o":"m 62 0 l 62 531 l 194 531 l 194 440 q 222 495 259 520 q 296 546 347 546 q 355 546 360 546 q 365 545 368 545 l 368 401 l 321 401 q 263 401 233 371 q 204 340 204 281 l 204 0 z"},"2":{"x_min":0,"x_max":567,"ha":567,"o":"m 23 0 q 24 94 63 159 q 102 224 202 291 q 217 301 246 319 q 377 404 377 482 q 377 528 350 555 q 322 582 273 582 q 221 582 192 549 q 164 516 164 455 l 164 449 l 35 449 q 35 569 99 634 q 164 699 283 699 q 391 699 455 640 q 520 582 520 484 q 520 414 486 363 q 452 312 355 246 q 335 232 299 209 q 207 150 195 119 l 513 119 l 513 0 z"},"{":{"x_min":0,"x_max":500,"ha":500,"o":"m 431 721 l 431 619 q 427 619 419 620 q 411 620 408 620 q 359 620 342 601 q 324 583 324 522 l 324 405 q 324 333 302 302 q 280 272 223 259 q 280 246 302 216 q 324 186 324 114 l 324 -4 q 324 -64 341 -83 q 358 -101 408 -101 q 411 -101 419 -101 q 427 -100 431 -100 l 431 -202 q 424 -202 412 -203 q 400 -203 394 -203 q 345 -203 312 -197 q 280 -191 257 -179 q 229 -163 218 -135 q 206 -106 206 -37 l 206 86 q 206 153 181 181 q 156 209 97 209 q 94 209 87 208 q 81 208 77 208 l 77 310 q 81 310 87 310 q 94 309 97 309 q 156 309 181 337 q 206 366 206 433 l 206 555 q 206 625 218 653 q 229 682 257 698 q 280 710 312 716 q 345 722 394 722 q 400 722 412 722 q 424 721 431 721 z"},"9":{"x_min":0,"x_max":567,"ha":567,"o":"m 384 456 q 384 516 354 551 q 324 586 272 586 q 223 586 196 552 q 169 519 169 458 q 169 401 197 370 q 226 338 277 338 q 327 338 355 369 q 384 400 384 456 z m 386 274 q 362 250 329 237 q 295 225 254 225 q 151 225 89 287 q 27 349 27 453 q 27 563 94 631 q 162 699 272 699 q 400 699 467 611 q 533 523 533 354 q 533 172 462 76 q 391 -21 257 -21 q 165 -21 108 27 q 51 75 46 158 l 187 158 q 192 124 213 107 q 235 91 274 91 q 327 91 354 137 q 382 183 386 274 z"}," ":{"x_min":0,"x_max":284,"ha":284,"o":""},"I":{"x_min":0,"x_max":307,"ha":307,"o":"m 79 0 l 79 719 l 227 719 l 227 0 z"},"H":{"x_min":0,"x_max":743,"ha":743,"o":"m 74 0 l 74 719 l 223 719 l 223 451 l 520 451 l 520 719 l 669 719 l 669 0 l 520 0 l 520 319 l 223 319 l 223 0 z"},"4":{"x_min":0,"x_max":567,"ha":567,"o":"m 321 259 l 321 558 l 131 259 z m 318 0 l 318 151 l 23 151 l 23 274 l 281 679 l 454 679 l 454 262 l 535 262 l 535 151 l 454 151 l 454 0 z"},"~":{"x_min":0,"x_max":833,"ha":833,"o":"m 747 392 l 747 284 q 696 250 651 233 q 606 217 562 217 q 540 217 517 221 q 495 225 472 232 q 460 236 438 244 q 331 281 275 281 q 233 281 188 262 q 143 244 87 204 l 87 312 q 139 347 187 365 q 234 382 276 382 q 333 382 418 354 l 420 353 q 429 350 447 344 q 522 317 564 317 q 605 317 649 335 q 693 353 747 392 z"},"D":{"x_min":0,"x_max":727,"ha":727,"o":"m 219 130 l 338 130 q 441 130 487 184 q 533 238 533 359 q 533 479 490 536 q 447 593 356 593 l 219 593 z m 74 0 l 74 719 l 356 719 q 521 719 603 630 q 684 541 684 359 q 684 260 654 185 q 624 110 567 64 q 524 30 469 15 q 415 0 316 0 z"},"^":{"x_min":0,"x_max":1000,"ha":1000,"o":"m 438 713 l 561 713 l 796 439 l 681 439 l 500 620 l 318 439 l 203 439 z"},"0":{"x_min":0,"x_max":567,"ha":567,"o":"m 176 340 q 176 212 201 155 q 227 97 283 97 q 339 97 365 155 q 391 213 391 340 q 391 467 365 524 q 339 582 283 582 q 227 582 201 525 q 176 467 176 340 z m 31 340 q 31 520 94 610 q 156 699 283 699 q 410 699 473 609 q 536 519 536 339 q 536 159 473 70 q 411 -19 283 -19 q 156 -19 94 70 q 31 160 31 340 z"},"F":{"x_min":0,"x_max":598,"ha":598,"o":"m 74 0 l 74 719 l 576 719 l 576 594 l 220 594 l 220 431 l 532 431 l 532 306 l 220 306 l 220 0 z"},"`":{"x_min":0,"x_max":500,"ha":500,"o":"m 107 775 l 233 775 l 329 594 l 260 594 z"},"k":{"x_min":0,"x_max":554,"ha":554,"o":"m 65 0 l 65 719 l 203 719 l 203 342 l 372 531 l 543 531 l 358 334 l 554 0 l 384 0 l 257 226 l 203 168 l 203 0 z"},"u":{"x_min":0,"x_max":597,"ha":597,"o":"m 535 531 l 535 0 l 396 0 l 396 63 q 366 24 325 5 q 285 -14 235 -14 q 147 -14 104 32 q 60 78 60 169 l 60 531 l 202 531 l 202 210 q 202 153 221 129 q 240 105 284 105 q 334 105 364 135 q 393 165 393 217 l 393 531 z"},"]":{"x_min":0,"x_max":382,"ha":382,"o":"m 272 719 l 272 -213 l 25 -213 l 25 -109 l 140 -109 l 140 615 l 25 615 l 25 719 z"},"U":{"x_min":0,"x_max":717,"ha":717,"o":"m 70 721 l 219 721 l 219 270 q 219 187 252 148 q 286 110 358 110 q 431 110 465 148 q 498 186 498 270 l 498 721 l 646 721 l 646 254 q 646 122 572 51 q 498 -20 359 -20 q 219 -20 144 51 q 70 121 70 254 z"},"o":{"x_min":0,"x_max":608,"ha":608,"o":"m 179 266 q 179 187 212 144 q 244 101 304 101 q 363 101 396 144 q 428 187 428 266 q 428 345 396 387 q 364 430 304 430 q 244 430 212 387 q 179 345 179 266 z m 35 266 q 35 398 107 474 q 179 550 304 550 q 429 550 501 474 q 573 398 573 266 q 573 133 501 58 q 429 -18 304 -18 q 179 -18 107 58 q 35 133 35 266 z"},"N":{"x_min":0,"x_max":741,"ha":741,"o":"m 74 0 l 74 719 l 229 719 l 521 225 l 521 719 l 667 719 l 667 0 l 514 0 l 220 494 l 220 0 z"},"+":{"x_min":0,"x_max":833,"ha":833,"o":"m 367 596 l 466 596 l 466 347 l 709 347 l 709 250 l 466 250 l 466 0 l 367 0 l 367 250 l 124 250 l 124 347 l 367 347 z"},"G":{"x_min":0,"x_max":777,"ha":777,"o":"m 592 85 q 552 31 501 5 q 450 -20 381 -20 q 230 -20 136 85 q 43 189 43 360 q 43 532 136 635 q 229 738 385 738 q 520 738 605 673 q 691 608 707 495 l 556 495 q 542 551 500 581 q 458 610 390 610 q 300 610 248 544 q 197 478 197 361 q 197 244 250 177 q 304 111 398 111 q 468 111 516 152 q 563 194 574 266 l 411 266 l 411 389 l 709 389 l 709 0 l 610 0 z"},"q":{"x_min":0,"x_max":613,"ha":613,"o":"m 176 269 q 176 188 206 146 q 236 104 294 104 q 351 104 380 146 q 410 188 410 269 q 410 344 379 385 q 348 426 291 426 q 238 426 207 384 q 176 342 176 269 z m 549 531 l 549 -213 l 410 -213 l 410 69 q 380 24 343 3 q 305 -18 255 -18 q 157 -18 96 60 q 35 137 35 263 q 35 390 96 469 q 157 549 253 549 q 305 549 345 527 q 385 505 412 463 l 412 531 z"},"d":{"x_min":0,"x_max":615,"ha":615,"o":"m 550 719 l 550 0 l 415 0 l 415 72 q 384 25 346 4 q 308 -18 256 -18 q 158 -18 97 60 q 36 137 36 263 q 36 390 97 469 q 158 549 254 549 q 305 549 345 527 q 386 506 412 465 l 412 719 z m 178 269 q 178 188 208 146 q 239 104 296 104 q 353 104 382 146 q 412 188 412 269 q 412 344 381 385 q 350 426 293 426 q 240 426 209 384 q 178 342 178 269 z"},"1":{"x_min":0,"x_max":567,"ha":567,"o":"m 246 0 l 246 478 l 79 478 l 79 576 l 90 576 q 181 576 223 604 q 265 633 272 699 l 384 699 l 384 0 z"},"5":{"x_min":0,"x_max":567,"ha":567,"o":"m 25 188 l 162 188 q 165 142 192 117 q 220 92 266 92 q 322 92 352 125 q 382 158 382 220 q 382 278 352 312 q 321 345 267 345 q 236 345 213 333 q 190 321 174 297 l 48 304 l 94 679 l 496 679 l 496 561 l 192 561 l 174 421 q 197 439 227 448 q 257 457 293 457 q 398 457 462 394 q 526 330 526 227 q 526 114 456 47 q 385 -20 266 -20 q 157 -20 93 35 q 29 91 25 188 z"}}}
